<svg width="32" height="32" viewBox="0 0 32 32" fill="none" xmlns="http://www.w3.org/2000/svg">
<path d="M4.90279 7.33341L12.4615 15.1833M12.4615 15.1833L4.90279 24.6667M12.4615 15.1833L14.1805 16.9685C15.2051 17.9247 16.7951 17.9247 17.8196 16.9685L19.6267 15.1833M27.3333 7.56953L19.6267 15.1833M19.6267 15.1833L27.3333 24.4306M4.90279 24.6667C5.37287 25.0817 5.99037 25.3334 6.66667 25.3334H25.3333C26.1297 25.3334 26.8447 24.9842 27.3333 24.4306M4.90279 24.6667C4.34917 24.1781 4 23.4631 4 22.6667V9.33341C4 7.86065 5.19391 6.66675 6.66667 6.66675H25.3333C26.8061 6.66675 28 7.86065 28 9.33341V22.6667C28 23.343 27.7483 23.9605 27.3333 24.4306" stroke="white" stroke-width="2" stroke-linecap="round"/>
</svg>
