<svg width="32" height="32" viewBox="0 0 32 32" fill="none" xmlns="http://www.w3.org/2000/svg">
<path d="M25.3337 13.6863C25.3337 17.4812 20.6369 23.766 17.907 27.0984C16.9082 28.3176 15.0925 28.3176 14.0937 27.0984C11.3638 23.766 6.66699 17.4812 6.66699 13.6863C6.66699 8.33669 10.8457 4 16.0003 4C21.155 4 25.3337 8.33669 25.3337 13.6863Z" stroke="white" stroke-width="2" stroke-linecap="round"/>
<path d="M19.4675 13.3334C19.4675 15.248 17.9154 16.8001 16.0009 16.8001C14.0863 16.8001 12.5342 15.248 12.5342 13.3334C12.5342 11.4188 14.0863 9.8667 16.0009 9.8667C17.9154 9.8667 19.4675 11.4188 19.4675 13.3334Z" stroke="white" stroke-width="2" stroke-linecap="round"/>
</svg>
