<svg xmlns="http://www.w3.org/2000/svg" version="1.1" xmlns:xlink="http://www.w3.org/1999/xlink" width="512" height="512" x="0" y="0" viewBox="0 0 512 512" style="enable-background:new 0 0 512 512" xml:space="preserve" class=""><g><path d="M454 74.979H58a58.063 58.063 0 0 0-58 58v246.045a58.063 58.063 0 0 0 58 58h396a58.063 58.063 0 0 0 58-58V132.976a58.063 58.063 0 0 0-58-57.997zm26 304.045a26.026 26.026 0 0 1-26 26H58a26.026 26.026 0 0 1-26-26V132.976a26.026 26.026 0 0 1 26-26h396a26.026 26.026 0 0 1 26 26zM371.272 231.809l-137.7-79.5a27.933 27.933 0 0 0-41.9 24.192v159a27.873 27.873 0 0 0 41.9 24.191l137.694-79.5a27.933 27.933 0 0 0 0-48.382zm-147.594 96.646v-144.91L349.173 256z" fill="#ffffff" opacity="1" data-original="#000000" class=""></path></g></svg>